<svg width="150" height="150" viewBox="0 0 150 150" fill="none" xmlns="http://www.w3.org/2000/svg">
<mask id="path-1-inside-1" fill="white">
<path fill-rule="evenodd" clip-rule="evenodd" d="M74.5 112C95.2107 112 112 95.2107 112 74.5V74.5C112 72.1668 108.538 71.7212 107.081 73.5433C102.957 78.6981 96.6143 82 89.5 82C77.0736 82 67 71.9264 67 59.5C67 52.3857 70.3019 46.0426 75.4567 41.9195C77.2788 40.4621 76.8332 37 74.5 37V37C53.7893 37 37 53.7893 37 74.5C37 95.2107 53.7893 112 74.5 112Z"/>
</mask>
<path d="M75.4567 41.9195L70.4598 35.672L75.4567 41.9195ZM107.081 73.5433L100.833 68.5463L107.081 73.5433ZM104 74.5C104 90.7924 90.7924 104 74.5 104V120C99.629 120 120 99.629 120 74.5H104ZM100.833 68.5463C98.1629 71.8847 94.0811 74 89.5 74V90C99.1475 90 107.752 85.5115 113.328 78.5402L100.833 68.5463ZM89.5 74C81.4919 74 75 67.5081 75 59.5H59C59 76.3447 72.6553 90 89.5 90V74ZM75 59.5C75 54.9189 77.1153 50.8371 80.4537 48.1669L70.4598 35.672C63.4885 41.248 59 49.8525 59 59.5H75ZM45 74.5C45 58.2076 58.2076 45 74.5 45V29C49.371 29 29 49.371 29 74.5H45ZM74.5 104C58.2076 104 45 90.7924 45 74.5H29C29 99.629 49.371 120 74.5 120V104ZM80.4537 48.1669C84.0109 45.3217 84.9944 40.985 84.4269 37.5931C83.8287 34.0178 80.7834 29 74.5 29V45C72.9259 45 71.339 44.3461 70.1846 43.1716C69.1532 42.1222 68.7722 40.9863 68.6463 40.2334C68.4293 38.9369 68.7246 37.0599 70.4598 35.672L80.4537 48.1669ZM120 74.5C120 68.2166 114.982 65.1713 111.407 64.5731C108.015 64.0056 103.678 64.9891 100.833 68.5463L113.328 78.5402C111.94 80.2754 110.063 80.5707 108.767 80.3537C108.014 80.2278 106.878 79.8468 105.828 78.8154C104.654 77.661 104 76.0741 104 74.5H120Z" fill="white" mask="url(#path-1-inside-1)"/>
</svg>
