<svg width="30" height="30" viewBox="0 0 30 30" fill="none" xmlns="http://www.w3.org/2000/svg">
<mask id="mask0_545_157" style="mask-type:alpha" maskUnits="userSpaceOnUse" x="0" y="0" width="30" height="30">
<circle cx="15" cy="15" r="15" fill="#C4C4C4"/>
</mask>
<g mask="url(#mask0_545_157)">
<path d="M2.25008 23.2501C2.25008 21.6239 2.19497 19.9867 2.25008 18.3612C2.29148 17.1397 2.70288 15.9328 2.76396 14.6806C2.7921 14.1038 2.79395 12.9847 3.02785 12.4584C3.17558 12.126 3.59311 12.9215 3.83341 13.1945C4.94747 14.4605 6.09036 15.5636 7.50008 16.5001C8.76134 17.3379 10.0476 18.0771 11.139 19.139C11.1663 19.1656 11.9723 20.0146 11.9723 19.6112C11.9723 16.0593 13.3369 12.8202 13.6945 9.33341C13.8354 7.95967 14.0188 6.61673 14.1945 5.25008C14.2519 4.80408 14.097 3.48535 14.264 3.90285C15.0987 5.98957 15.5751 8.56804 16.0001 10.7779C16.5541 13.6587 17.7118 16.4495 18.2362 19.3334C18.6394 21.551 18.9596 20.5038 19.3056 18.889C19.5369 17.8099 19.1141 16.8552 18.9445 15.8056C18.4837 12.9529 19.3399 9.8422 20.0001 7.06952C20.0828 6.72224 20.1989 4.50032 20.389 5.51397C20.5905 6.58877 21.4907 7.50264 22.0001 8.44452C22.3574 9.10529 25.6942 15.7364 26.3056 15.2779C27.6849 14.2434 28.7563 11.9803 29.5973 10.514C29.9974 9.81642 31.5001 8.05931 31.5001 7.25008C31.5001 6.60146 30.8097 7.75686 30.7501 7.86119C30.6263 8.07788 30.3546 7.91764 30.2501 8.15285C30.1339 8.41431 30.1216 8.99771 29.9445 9.19452C29.5683 9.61259 29.1164 10.1021 28.6251 10.3751C27.9361 10.7579 28.2501 10.2574 28.2501 9.75008" stroke="black" stroke-width="3" stroke-linecap="round"/>
<circle cx="15" cy="15" r="14.5" stroke="#999999"/>
</g>
</svg>
